<svg width="825" height="405" viewBox="0 0 825 405" fill="none" xmlns="http://www.w3.org/2000/svg">
<path d="M777 0.0119019C803.51 0.0119037 825 21.5022 825 48.0119V356.012C825 382.522 803.51 404.012 777 404.012H740V338.026C740 329.741 733.284 323.026 725 323.026H469C460.716 323.026 454 329.741 454 338.026V404.012H48C21.4903 404.012 4.02715e-07 382.522 0 356.012V48.0119C5.28362e-06 21.5022 21.4903 0.011902 48 0.0119019H777Z" fill="#2B2B2B"/>
<path d="M0 313.512H69.4174V355.995H137V404.512" stroke="#313B44" stroke-width="5"/>
<path d="M174.991 271.012L175.569 313.386L128.889 314.024L129.452 355.278L76.1419 356.006" stroke="#313B44" stroke-width="5"/>
<path d="M1 246.012H273.5" stroke="#313B44" stroke-width="5"/>
<path d="M684 84.0238V-3.03984e-06" stroke="#313B44" stroke-width="5"/>
<path d="M725 48.0119L725 0.0119015" stroke="#313B44" stroke-width="5"/>
<path d="M764 84.0238V-3.03984e-06" stroke="#313B44" stroke-width="5"/>
</svg>
